<?xml version="1.0" standalone="no"?>
<!DOCTYPE svg PUBLIC "-//W3C//DTD SVG 20010904//EN"
 "http://www.w3.org/TR/2001/REC-SVG-20010904/DTD/svg10.dtd">
<svg version="1.0" xmlns="http://www.w3.org/2000/svg"
 width="584.000000pt" height="150.000000pt" viewBox="0 0 584.000000 150.000000"
 preserveAspectRatio="xMidYMid meet">

<g transform="translate(0.000000,150.000000) scale(0.100000,-0.100000)"
fill="#000000" stroke="none">
<path d="M0 1026 c0 -493 4 -549 45 -671 39 -113 145 -234 249 -285 86 -42
178 -60 351 -67 175 -6 288 10 393 57 86 39 196 150 240 240 66 136 66 134 70
693 l3 507 -235 0 -236 0 0 -489 c0 -533 -1 -544 -58 -605 -37 -39 -81 -56
-147 -56 -70 0 -112 17 -152 63 -56 64 -56 70 -60 600 l-4 487 -230 0 -229 0
0 -474z"/>
<path d="M1580 750 l0 -750 230 0 230 0 2 277 3 278 255 6 c276 6 323 14 422
72 55 32 129 111 158 167 47 93 62 247 35 373 -26 125 -95 216 -205 272 -100
51 -145 55 -657 55 l-473 0 0 -750z m792 430 c77 -22 125 -122 98 -204 -15
-45 -69 -93 -117 -103 -21 -4 -99 -8 -173 -8 l-135 0 -3 163 -2 162 147 0 c82
0 165 -5 185 -10z"/>
<path d="M3080 749 l0 -750 408 4 c448 4 481 8 612 70 92 43 205 157 253 257
63 130 72 178 71 410 0 179 -3 215 -22 285 -53 192 -158 332 -306 406 -127 62
-180 68 -628 69 l-388 0 0 -751z m714 385 c62 -21 116 -76 139 -139 49 -135
44 -414 -9 -522 -47 -97 -94 -120 -266 -130 l-108 -6 0 413 0 413 98 -6 c53
-3 119 -13 146 -23z"/>
<path d="M5020 1493 c-152 -20 -272 -75 -354 -164 -143 -154 -136 -388 15
-523 89 -80 185 -121 434 -187 227 -59 280 -95 280 -184 0 -88 -79 -145 -200
-145 -79 0 -133 20 -179 66 -32 32 -65 98 -66 129 -1 47 -3 48 -229 34 -241
-14 -224 -4 -196 -114 53 -206 186 -335 395 -382 108 -24 418 -24 514 0 245
62 406 249 406 472 0 169 -87 299 -254 380 -75 36 -238 86 -421 129 -60 14
-121 34 -135 44 -68 51 -56 127 26 164 39 17 60 19 111 15 34 -4 76 -13 92
-21 42 -22 80 -72 94 -123 l12 -45 50 6 c27 3 118 9 202 12 83 4 157 10 164
15 17 10 -2 95 -41 177 -53 112 -151 186 -305 228 -60 16 -336 28 -415 17z"/>
</g>
</svg>
